<svg xmlns="http://www.w3.org/2000/svg" data-name="Layer 1" viewBox="0 0 50 50"><path d="M47.84,42.18a10.23,10.23,0,0,0-2.14-5.9,10.42,10.42,0,0,0-4-3.15L34.41,30l-2.15-1.26V26a10.15,10.15,0,0,0,1.52-2.74,14,14,0,0,0,.53-1.85,1.82,1.82,0,0,0,1.12-.27,1.51,1.51,0,0,0,.79-1A23.22,23.22,0,0,1,37.33,17a2.75,2.75,0,0,0,.24-.77,2.78,2.78,0,0,0-.19-1.6,2.3,2.3,0,0,0-1.33-1.28l-.37-.1.21-1.21c.54-3.36-.49-4.89-1.81-6.82l-.57-.85C31.69,1.62,27.39.47,21.69,1.23c-2.88.39-4,2.06-4.34,3.4a3.34,3.34,0,0,0-1.82.94c-2,2-1.67,6.21-1.58,7,0,.16,0,.32.05.48a1.24,1.24,0,0,0-.29.06,2.39,2.39,0,0,0-1.31,1.27A2.81,2.81,0,0,0,12.22,16a2.6,2.6,0,0,0,.22.77,10.22,10.22,0,0,1,.84,2.77l0,.15a2.35,2.35,0,0,0,1.28,1.51,2.3,2.3,0,0,0,1,.19,15.34,15.34,0,0,0,.52,1.84l.09.22h0A10.61,10.61,0,0,0,17.65,26s0,0,0,0v2.73L15.41,30l0,0L8.57,33A10.89,10.89,0,0,0,4.3,36.38a10.72,10.72,0,0,0-2.19,6.1l-.17,4.58a1,1,0,0,0,1,1h0a1,1,0,0,0,1-1l.17-4.58a8.75,8.75,0,0,1,5.26-7.7l1.44-.63a18.77,18.77,0,0,0-.88,7.08,2.95,2.95,0,1,0,2,0c-.1-1.74-.14-6.31,2-8.45l.49-.21L14,34.06a.8.8,0,0,0,0,.15A2.3,2.3,0,0,0,14.56,36l.1.11L16,37.23l-.86,1.37a.88.88,0,0,0-.1.22,2.3,2.3,0,0,0,0,1.49,1,1,0,0,0,.44.54l8.78,5,.15.07a1,1,0,0,0,.35.06h0a1,1,0,0,0,.33,0l.15-.07,8.81-4.72a1,1,0,0,0,.47-.53,2.44,2.44,0,0,0,0-1.58L34,37.7l1.4-1.21.1-.11a2.33,2.33,0,0,0,.55-1.73l0-.17-.51-1.84,2.1.91a15.62,15.62,0,0,1,1.17,4.76,4.22,4.22,0,0,0-3.49,4,20.15,20.15,0,0,0,.93,6,1,1,0,0,0,1,.69h1a1,1,0,0,0,0-2h-.29a18.78,18.78,0,0,1-.63-4.7,2.36,2.36,0,0,1,2.53-2.1h0a2.37,2.37,0,0,1,2.53,2.16A13.7,13.7,0,0,1,41.75,47h-.14a1,1,0,0,0,0,2h.87a1,1,0,0,0,1-.69,16.08,16.08,0,0,0,.93-6,4.22,4.22,0,0,0-3.57-4,19.47,19.47,0,0,0-.66-3.64l.73.32a8.29,8.29,0,0,1,3.26,2.54,8.18,8.18,0,0,1,1.72,4.75L46.06,48a1,1,0,0,0,1,1h0a1,1,0,0,0,1-1ZM10.91,45a1,1,0,1,1,1-1A1,1,0,0,1,10.91,45Zm17.49-18a5.59,5.59,0,0,1-6.9,0,12.53,12.53,0,0,1-2.92-3.29,22.66,22.66,0,0,0,6-2.88.46.46,0,0,1,.53.06A25.2,25.2,0,0,0,31,24.32,13.41,13.41,0,0,1,28.4,27.06Zm-8.76,1.05c.2.18.4.34.59.5a7.47,7.47,0,0,0,9.44,0c.19-.15.39-.32.59-.5V29c-1.37,2.19-3.11,3.36-5.05,3.39h-.06A7,7,0,0,1,19.64,29ZM16,19.27a.86.86,0,0,1-.56.11.42.42,0,0,1-.15-.22,12.6,12.6,0,0,0-1-3.27.5.5,0,0,1-.05-.19.87.87,0,0,1,0-.47.55.55,0,0,1,.1-.16,6,6,0,0,1,.61,0h.22a1,1,0,0,0,.76-.35,1,1,0,0,0,.23-.81c-.09-.52-.16-1-.21-1.52-.2-1.94,0-4.46,1-5.43a1.4,1.4,0,0,1,1.2-.38,1,1,0,0,0,.79-.27,1,1,0,0,0,.32-.78c0-.33.06-2,2.71-2.33,4.83-.66,8.52.2,9.88,2.27.2.31.4.6.59.88,1.22,1.81,1.9,2.8,1.48,5.38-.12.74-.25,1.48-.37,2.2a1,1,0,0,0,.29.88,1,1,0,0,0,.79.28,6.92,6.92,0,0,1,.77.16.32.32,0,0,1,.16.18v0a.81.81,0,0,1,0,.48.63.63,0,0,1-.06.2,24.18,24.18,0,0,0-1.18,3.21.85.85,0,0,1-.41-.1,1,1,0,0,0-.89,0,1,1,0,0,0-.52.72,14.17,14.17,0,0,1-.63,2.53,23.91,23.91,0,0,1-5.55-3.18,2.42,2.42,0,0,0-2.9-.11,21.34,21.34,0,0,1-5.64,2.66,16.14,16.14,0,0,1-.43-1.9,1,1,0,0,0-.52-.73,1,1,0,0,0-.47-.12A1.08,1.08,0,0,0,16,19.27ZM17,39.4,18,37.89a.91.91,0,0,0,.11-.22,1.34,1.34,0,0,0-.31-1.53L17.63,36a1.14,1.14,0,0,0-.11-.11l-1.47-1.28a.24.24,0,0,1-.05-.14l.78-2.93L18,30.81c.93,3,2.65,7,4.46,11.3l.24.57Zm7.8,3.05-.48-1.12c-1.25-3-2.47-5.83-3.39-8.26a7.79,7.79,0,0,0,4.21,1.32h.09a7,7,0,0,0,3.52-1c-.73,1.77-1.61,3.75-2.51,5.8C25.77,40.25,25.28,41.35,24.81,42.45Zm9.2-7.4-1.48,1.28-.1.1a.68.68,0,0,1-.12.12A1.38,1.38,0,0,0,32,38.16l.63,1.52-5.81,3.11c.41-.95.83-1.89,1.24-2.83,1.52-3.43,3-6.71,3.77-9.16l1.29.75.92,3.35A.44.44,0,0,1,34,35.05Z" fill="#000000" class="color000000 svgShape"></path><path d="M20 13.82a1.54 1.54 0 0 1 2.12 0 1 1 0 1 0 1.28-1.53 3.53 3.53 0 0 0-4.77 0 1 1 0 0 0 0 1.42A1 1 0 0 0 20 13.82zM21.54 14.68a1 1 0 0 0-1 1V16a1 1 0 0 0 2 0v-.3A1 1 0 0 0 21.54 14.68zM27.25 14.09a1 1 0 0 0 .64-.23 1.54 1.54 0 0 1 2.13 0 1 1 0 0 0 1.36-1.47 3.53 3.53 0 0 0-4.77 0 1 1 0 0 0 .64 1.76zM28.51 14.68a1 1 0 0 0-1 1V16a1 1 0 0 0 2 0v-.3A1 1 0 0 0 28.51 14.68z" fill="#000000" class="color000000 svgShape"></path></svg>