<svg xmlns="http://www.w3.org/2000/svg" enable-background="new 0 0 64 64" viewBox="0 0 64 64"><path d="M50.97 18.06c-1.28 0-2.32 1.04-2.32 2.32v9.3H15.49v-9.3c0-1.28-1.04-2.32-2.32-2.32-1.28 0-2.32 1.04-2.32 2.32v23.24c0 1.28 1.04 2.32 2.32 2.32 1.28 0 2.32-1.04 2.32-2.32v-9.3h33.16v9.3c0 1.28 1.04 2.32 2.32 2.32 1.28 0 2.32-1.04 2.32-2.32V20.38C53.29 19.1 52.25 18.06 50.97 18.06zM56.32 23.51c-1.28 0-2.32 1.04-2.32 2.32v12.34c0 1.28 1.04 2.32 2.32 2.32 1.28 0 2.32-1.04 2.32-2.32V25.83C58.64 24.55 57.6 23.51 56.32 23.51zM61.68 25.89c-1.28 0-2.32 1.04-2.32 2.32v7.58c0 1.28 1.04 2.32 2.32 2.32 1.28 0 2.32-1.04 2.32-2.32v-7.58C64 26.93 62.96 25.89 61.68 25.89zM2.32 25.89C1.04 25.89 0 26.93 0 28.21v7.58c0 1.28 1.04 2.32 2.32 2.32 1.28 0 2.32-1.04 2.32-2.32v-7.58C4.64 26.93 3.6 25.89 2.32 25.89zM7.74 23.51c-1.28 0-2.32 1.04-2.32 2.32v12.34c0 1.28 1.04 2.32 2.32 2.32s2.32-1.04 2.32-2.32V25.83C10.06 24.55 9.03 23.51 7.74 23.51z" fill="#000000" class="color000000 svgShape"></path></svg>