<svg xmlns="http://www.w3.org/2000/svg" viewBox="0 0 64 64"><g data-name="Layer 1" fill="#000000" class="color000000 svgShape"><circle cx="11" cy="47" r="6" style="mix-blend-mode:multiply" fill="#000000" class="color000000 svgShape"></circle><circle cx="53" cy="47" r="6" style="mix-blend-mode:multiply" fill="#000000" class="color000000 svgShape"></circle><path d="M59.59 35.52l-5.76-1.15a3.02083 3.02083 0 0 1-2.02356-1.47638A1.98185 1.98185 0 0 1 51.2002 33H12.7998a1.98185 1.98185 0 0 1-.60626-.10638A3.02083 3.02083 0 0 1 10.17 34.37L4.41 35.52A2.99861 2.99861 0 0 0 2 38.46V44a2.99615 2.99615 0 0 0 1.03 2.26A8.00223 8.00223 0 0 1 19 47H45a8.00223 8.00223 0 0 1 15.97-.74A2.99615 2.99615 0 0 0 62 44V38.46A2.99861 2.99861 0 0 0 59.59 35.52zM38 41H24a2 2 0 0 1 0-4H38a2 2 0 0 1 0 4zM31 19H26.76A13.989 13.989 0 0 0 13.23 29.39L12.8 31H31zM50.77 29.39A13.989 13.989 0 0 0 37.24 19H37V13a2 2 0 0 0-4 0V31H51.2z" style="mix-blend-mode:multiply" fill="#000000" class="color000000 svgShape"></path></g></svg>